<svg width="18" height="20" viewBox="0 0 18 20" fill="none" xmlns="http://www.w3.org/2000/svg">
<path d="M4.56871 5.99532L4.44771 6.73549L4.56871 5.99532ZM13.4485 5.99947L13.5686 6.7398L13.4485 5.99947ZM16.9336 9.5536L17.6626 9.72969L16.9336 9.5536ZM15.1697 16.8562L15.8987 17.0323L15.1697 16.8562ZM2.86182 16.8562L3.59085 16.6801L2.86182 16.8562ZM1.09451 9.53955L1.82354 9.36345L1.09451 9.53955ZM4.44771 6.73549C7.59047 7.24925 10.3323 7.26465 13.5686 6.7398L13.3285 5.25914C10.2539 5.75777 7.6749 5.74314 4.68971 5.25514L4.44771 6.73549ZM16.2046 9.3775L14.4407 16.6801L15.8987 17.0323L17.6626 9.72969L16.2046 9.3775ZM12.4423 18.25H5.58921V19.75H12.4423V18.25ZM3.59085 16.6801L1.82354 9.36345L0.365473 9.71564L2.13278 17.0323L3.59085 16.6801ZM5.58921 18.25C4.63848 18.25 3.81307 17.6001 3.59085 16.6801L2.13278 17.0323C2.5181 18.6275 3.94759 19.75 5.58921 19.75V18.25ZM14.4407 16.6801C14.2184 17.6001 13.393 18.25 12.4423 18.25V19.75C14.0839 19.75 15.5134 18.6275 15.8987 17.0323L14.4407 16.6801ZM13.5686 6.7398C15.2 6.47523 16.5607 7.90332 16.2046 9.3775L17.6626 9.72969C18.3012 7.08618 15.8862 4.84434 13.3285 5.25914L13.5686 6.7398ZM4.68971 5.25514C2.13363 4.83729 -0.27195 7.07673 0.365473 9.71564L1.82354 9.36345C1.46792 7.89121 2.82223 6.46977 4.44771 6.73549L4.68971 5.25514Z" fill="white"/>
<path d="M4.25 8.8323C4.25 9.24652 4.58579 9.58231 5 9.58231C5.41421 9.58231 5.75 9.24652 5.75 8.83231L4.25 8.8323ZM5.00001 4.49999L5.75001 4.5L5.00001 4.49999ZM12.25 9C12.25 9.41421 12.5858 9.75 13 9.75C13.4142 9.75 13.75 9.41421 13.75 9H12.25ZM5.75 8.83231L5.75001 4.5L4.25001 4.49999L4.25 8.8323L5.75 8.83231ZM8.50001 1.75H9.5V0.25H8.50001V1.75ZM9.5 1.75C11.0188 1.75 12.25 2.98122 12.25 4.5H13.75C13.75 2.15279 11.8472 0.25 9.5 0.25V1.75ZM5.75001 4.5C5.75001 2.98121 6.98123 1.75 8.50001 1.75V0.25C6.1528 0.25 4.25001 2.15279 4.25001 4.49999L5.75001 4.5ZM12.25 4.5V9H13.75V4.5H12.25Z" fill="white"/>
</svg>
