<svg width="60" height="60" viewBox="0 0 60 60" fill="none" xmlns="http://www.w3.org/2000/svg">
<path d="M1.66669 13C1.66669 9.99423 2.86073 7.11156 4.98614 4.98614C7.11156 2.86073 9.99423 1.66669 13 1.66669H47C50.0058 1.66669 52.8885 2.86073 55.0139 4.98614C57.1393 7.11156 58.3334 9.99423 58.3334 13V47C58.3334 50.0058 57.1393 52.8885 55.0139 55.0139C52.8885 57.1393 50.0058 58.3334 47 58.3334H13C9.99423 58.3334 7.11156 57.1393 4.98614 55.0139C2.86073 52.8885 1.66669 50.0058 1.66669 47V13Z" stroke="white" stroke-width="2" stroke-linecap="round" stroke-linejoin="round"/>
<path d="M20.0833 27.1667C23.9954 27.1667 27.1667 23.9954 27.1667 20.0833C27.1667 16.1713 23.9954 13 20.0833 13C16.1713 13 13 16.1713 13 20.0833C13 23.9954 16.1713 27.1667 20.0833 27.1667Z" stroke="white" stroke-width="2" stroke-linecap="round" stroke-linejoin="round"/>
<path d="M37.157 31.7596L13 58.3335H47.3768C50.2827 58.3335 53.0695 57.1791 55.1243 55.1244C57.179 53.0696 58.3333 50.2828 58.3333 47.377V47.0001C58.3333 45.6798 57.8375 45.1726 56.945 44.1951L45.5267 31.7426C44.9945 31.1621 44.3472 30.6989 43.626 30.3826C42.9048 30.0662 42.1256 29.9036 41.3381 29.9052C40.5506 29.9068 39.772 30.0726 39.0521 30.3918C38.3322 30.7111 37.6868 31.177 37.157 31.7596V31.7596Z" stroke="white" stroke-width="2" stroke-linecap="round" stroke-linejoin="round"/>
</svg>
